<?xml version="1.0" encoding="UTF-8"?>
<svg width="18px" height="18px" viewBox="0 0 18 18" version="1.1" xmlns="http://www.w3.org/2000/svg" xmlns:xlink="http://www.w3.org/1999/xlink">
    <!-- Generator: sketchtool 64 (101010) - https://sketch.com -->
    <title>BA6AD799-D7C0-45A5-824F-865513A5F8D9</title>
    <desc>Created with sketchtool.</desc>
    <g id="WEBMOBILE" stroke="none" stroke-width="1" fill="none" fill-rule="evenodd">
        <g id="Mobile_burgermenu" transform="translate(-23.000000, -70.000000)" fill="#fff">
            <g id="header">
                <g id="icon/password-copy" transform="translate(23.000000, 70.000000)">
                    <path d="M16.826087,2.77555756e-17 L16.9546353,0.00701696265 C17.2109015,0.0350848133 17.4596939,0.147356216 17.6561688,0.34383117 C18.0859578,0.773620132 18.1128196,1.45375593 17.7367543,1.91483825 L17.6561688,2.00399492 L10.66,8.999 L17.656616,15.9960051 C18.1150576,16.4544466 18.1150576,17.1977273 17.656616,17.6561688 C17.4582519,17.854533 17.2065594,17.9670665 16.9476882,17.9937693 L16.817868,17.9999682 C16.5578857,17.9980609 16.2984162,17.9103229 16.085609,17.7367543 L15.9964523,17.6561688 L9,10.659 L2.00399492,17.6561688 C1.80751996,17.8526438 1.55872763,17.9649152 1.30246138,17.992983 L1.17391304,18 C0.873482497,18 0.57305195,17.8853896 0.34383117,17.6561688 C-0.0859577925,17.2263799 -0.112819603,16.5462441 0.263245739,16.0851618 L0.34383117,15.9960051 L7.34,8.999 L0.344278375,2.00399492 C-0.114163185,1.54555336 -0.114163185,0.80227273 0.344278375,0.34383117 C0.575703201,0.112406344 0.879713796,-0.00219344959 1.18302645,3.17891244e-05 L1.3127612,0.00813801586 C1.52820239,0.0335693154 1.7379461,0.118605223 1.91528545,0.263245739 L2.00444212,0.34383117 L9,7.339 L15.9960051,0.34383117 C16.2252259,0.11461039 16.5256564,-6.9388939e-18 16.826087,-6.9388939e-18 Z" id="Stroke-1"></path>
                </g>
            </g>
        </g>
    </g>
</svg>